<?xml version="1.0" encoding="utf-8"?>
<!-- Generator: Adobe Illustrator 26.0.2, SVG Export Plug-In . SVG Version: 6.00 Build 0)  -->
<svg version="1.1" xmlns="http://www.w3.org/2000/svg" xmlns:xlink="http://www.w3.org/1999/xlink" x="0px" y="0px"
	 viewBox="0 0 36 36" style="enable-background:new 0 0 36 36;" xml:space="preserve">
<style type="text/css">
	.st0{fill:#004E8B;}
</style>
<g id="bg">
</g>
<g id="ico">
	<g>
		<path class="st0" d="M32,17.02h-7l-0.71,0.29l-1.41,1.41c-0.52-0.44-1.17-0.7-1.86-0.7h-2.95c-1.9-1.31-4.11-2-6.43-2H10v-2H4V30
			h6v-2.6l12.88,1.61l0.87-0.32l9-10L32,17.02z M8,28H6V16.02h2V28z M22.61,26.96L10,25.39v-7.37h1.64c1.98,0,3.88,0.62,5.51,1.8
			l0.27,0.2h3.6c0.26,0,0.5,0.11,0.66,0.31c0.1,0.12,0.25,0.36,0.19,0.72c-0.07,0.4-0.49,0.72-0.96,0.72h-4.9v2h4.9
			c1.45,0,2.71-1.03,2.93-2.4c0.04-0.27,0.04-0.53,0.01-0.79l1.55-1.55h4.34L22.61,26.96z"/>
		<path class="st0" d="M16.18,12.19L16.18,12.19l2.83,2.83l3.6-3.6c0.78-0.78,0.78-2.05,0-2.83c-0.78-0.78-2.05-0.78-2.83,0
			l-0.77,0.77l-0.78-0.78c-0.78-0.78-2.05-0.78-2.83,0c-0.78,0.78-0.78,2.05,0,2.83L16.18,12.19z"/>
	</g>
</g>
<g id="Layer_3">
</g>
</svg>
