<?xml version="1.0" encoding="utf-8"?>
<!-- Generator: Adobe Illustrator 26.0.2, SVG Export Plug-In . SVG Version: 6.00 Build 0)  -->
<svg version="1.1" xmlns="http://www.w3.org/2000/svg" xmlns:xlink="http://www.w3.org/1999/xlink" x="0px" y="0px"
	 viewBox="0 0 36 36" style="enable-background:new 0 0 36 36;" xml:space="preserve">
<style type="text/css">
	.st0{fill:#004E8B;}
</style>
<g id="bg">
</g>
<g id="ico">
	<path class="st0" d="M32.57,13.32c0-2-0.78-3.89-2.2-5.3c-2.92-2.92-7.68-2.92-10.61,0L18,9.79l-1.77-1.77
		c-2.92-2.92-7.68-2.92-10.61,0c-2.92,2.92-2.92,7.68,0,10.61L18,31L28.6,20.39l0,0l1.77-1.77C31.79,17.21,32.57,15.33,32.57,13.32z
		 M18,28.17L7.04,17.21c-2.14-2.14-2.14-5.63,0-7.78c2.15-2.14,5.63-2.14,7.78,0l1.77,1.77l-2.48,2.48
		c-0.57,0.57-0.88,1.32-0.88,2.12c0,0.8,0.31,1.56,0.88,2.12c1.13,1.13,3.11,1.13,4.24,0l2.48-2.48l4.95,4.95L18,28.17z
		 M27.19,18.98l-5.9-5.9l-0.47-0.47l-3.89,3.89c-0.38,0.38-1.04,0.38-1.42,0c-0.19-0.19-0.29-0.44-0.29-0.71
		c0-0.27,0.1-0.52,0.29-0.71l5.66-5.66c2.15-2.14,5.63-2.14,7.78,0c1.04,1.04,1.61,2.42,1.61,3.89s-0.57,2.85-1.61,3.89L27.19,18.98
		z"/>
</g>
<g id="Layer_3">
</g>
</svg>
