<?xml version="1.0" encoding="utf-8"?>
<!-- Generator: Adobe Illustrator 26.0.2, SVG Export Plug-In . SVG Version: 6.00 Build 0)  -->
<svg version="1.1" id="Layer_1" xmlns="http://www.w3.org/2000/svg" xmlns:xlink="http://www.w3.org/1999/xlink" x="0px" y="0px"
	 viewBox="0 0 85.04 76.54" style="enable-background:new 0 0 85.04 76.54;" xml:space="preserve">
<style type="text/css">
	.st0{fill:#004E8B;}
	.st1{fill:#0082A0;}
	.st2{fill:#31B6B3;}
</style>
<g>
	<g>
		<path class="st0" d="M56.3,28.7c0,7.58,5.82,13.79,13.23,14.43v0.1c-9.85,0.65-17.64,8.84-17.64,18.85h18.9V14.21
			C62.78,14.21,56.3,20.69,56.3,28.7"/>
		<path class="st1" d="M37.4,28.7c0,7.58,5.82,13.79,13.23,14.43v0.1c-9.85,0.65-17.64,8.84-17.64,18.85h18.9V14.21
			C43.89,14.21,37.4,20.69,37.4,28.7"/>
		<path class="st2" d="M18.5,28.7c0,7.58,5.82,13.79,13.23,14.43v0.1c-9.85,0.65-17.64,8.84-17.64,18.85h18.9V14.21
			C24.99,14.21,18.5,20.69,18.5,28.7"/>
	</g>
</g>
</svg>
